<svg version="1.1" xmlns="http://www.w3.org/2000/svg" xmlns:xlink="http://www.w3.org/1999/xlink" width="265" height="232"><defs><clipPath id="lfDPDKzLPNRm"><path fill="none" stroke="none" d=" M 0 0 L 944 0 L 944 424 L 0 424 L 0 0 Z"/></clipPath></defs><g transform="scale(1,1)" clip-path="url(#lfDPDKzLPNRm)"><g><path fill="none" stroke="rgb(0,0,0)" paint-order="fill stroke markers" d=" M 216.37941393634964 104.93894598778563 C 216.37941393634964 161.0203571400504 170.9164475379999 206.48332353840019 114.83503638573515 206.48332353840019 C 58.7536252334704 206.48332353840019 13.290658835120666 161.0203571400504 13.290658835120666 104.93894598778563 C 13.290658835120666 48.857534835520845 58.7536252334704 3.394568437171074 114.83503638573515 3.394568437171074 C 170.9164475379999 3.394568437171074 216.37941393634964 48.857534835520845 216.37941393634964 104.93894598778563 Z" stroke-opacity="1" stroke-linecap="round" stroke-linejoin="round" stroke-miterlimit="10" stroke-width="1.5"/><path fill="none" stroke="rgb(0,0,0)" paint-order="fill stroke markers" d=" M 47.739958149902805 28.71879715121301 L 244.87859746291525 191.10757461921997" stroke-opacity="1" stroke-linecap="round" stroke-linejoin="round" stroke-miterlimit="10" stroke-width="1.5"/><path fill="none" stroke="rgb(0,0,0)" paint-order="fill stroke markers" d=" M 30.346280438434547 161.2675420169716 L 115.90314869202913 206.47770581989553" stroke-opacity="1" stroke-linecap="round" stroke-linejoin="round" stroke-miterlimit="10" stroke-width="1.5"/><path fill="none" stroke="rgb(0,0,0)" paint-order="fill stroke markers" d=" M 30.346280438434547 161.2675420169716 L 47.739958149902805 28.71879715121301" stroke-opacity="1" stroke-linecap="round" stroke-linejoin="round" stroke-miterlimit="10" stroke-width="1.5"/><path fill="none" stroke="rgb(0,0,0)" paint-order="fill stroke markers" d=" M 30.346280438434547 161.2675420169716 L 202.49426833272804 156.19438147130302" stroke-opacity="1" stroke-linecap="round" stroke-linejoin="round" stroke-miterlimit="10" stroke-width="1.5"/><path fill="none" stroke="rgb(0,0,0)" paint-order="fill stroke markers" d=" M 39.31257280806125 92.93979561346966 L 244.87859746291525 191.10757461921997" stroke-opacity="1" stroke-linecap="round" stroke-linejoin="round" stroke-miterlimit="10" stroke-width="1.5"/><path fill="none" stroke="rgb(0,0,0)" paint-order="fill stroke markers" d=" M 33.513970117654225 137.1281220466942 L 244.87859746291525 191.10757461921997" stroke-opacity="1" stroke-linecap="round" stroke-linejoin="round" stroke-miterlimit="10" stroke-width="1.5"/><path fill="none" stroke="rgb(0,0,0)" paint-order="fill stroke markers" d=" M 33.513970117654225 137.1281220466942 L 125.80374988410998 93.02219169837352" stroke-opacity="1" stroke-linecap="round" stroke-linejoin="round" stroke-miterlimit="10" stroke-width="1.5"/><path fill="none" stroke="rgb(0,0,0)" paint-order="fill stroke markers" d=" M 50.41302444567245 134.97318240805708 L 30.346280438434547 161.2675420169716" stroke-opacity="1" stroke-linecap="round" stroke-linejoin="round" stroke-miterlimit="10" stroke-width="1.5"/><path fill="none" stroke="rgb(0,0,0)" paint-order="fill stroke markers" d=" M 50.41302444567245 134.97318240805708 L 202.49426833272804 156.19438147130302" stroke-opacity="1" stroke-linecap="round" stroke-linejoin="round" stroke-miterlimit="10" stroke-width="1.5"/><path fill="none" stroke="rgb(0,0,0)" paint-order="fill stroke markers" d=" M 202.49426833272804 156.19438147130302 L 115.90314869202913 206.47770581989553" stroke-opacity="1" stroke-linecap="round" stroke-linejoin="round" stroke-miterlimit="10" stroke-width="1.5"/><path fill="none" stroke="rgb(0,0,0)" paint-order="fill stroke markers" d=" M 37.39765086898683 107.53248289620956 L 82.6606173500978 113.64059606957062" stroke-opacity="1" stroke-linecap="round" stroke-linejoin="round" stroke-miterlimit="10" stroke-width="1.5"/><path fill="none" stroke="rgb(0,0,0)" paint-order="fill stroke markers" d=" M 82.6606173500978 113.64059606957062 L 109.75993548761852 79.80643950058565" stroke-opacity="1" stroke-linecap="round" stroke-linejoin="round" stroke-miterlimit="10" stroke-width="1.5"/><g transform="scale(15,15)"><g transform="translate(2.533333333333333,1.683332)"><path fill="rgb(0,0,0)" stroke="none" paint-order="stroke fill markers" d=" M 0.179 -0.115 L 0.527 -0.6990000000000001 Q 0.537 -0.715 0.553 -0.716 Q 0.5680000000000001 -0.716 0.5700000000000001 -0.706 Q 0.5710000000000001 -0.7030000000000001 0.5720000000000001 -0.6920000000000001 L 0.633 -0.067 Q 0.636 -0.042 0.645 -0.037 L 0.646 -0.037 L 0.646 -0.037 L 0.646 -0.037 L 0.646 -0.037 L 0.646 -0.036000000000000004 Q 0.658 -0.031 0.6980000000000001 -0.031 Q 0.72 -0.031 0.721 -0.02 Q 0.721 0 0.7030000000000001 0 L 0.591 -0.003 L 0.59 -0.003 L 0.466 0 L 0.465 0 Q 0.451 0 0.451 -0.011 Q 0.459 -0.03 0.47500000000000003 -0.031 Q 0.547 -0.031 0.547 -0.064 Q 0.547 -0.063 0.531 -0.231 L 0.28 -0.231 L 0.20400000000000001 -0.10300000000000001 Q 0.19 -0.078 0.19 -0.066 Q 0.19 -0.035 0.23700000000000002 -0.031 Q 0.253 -0.031 0.253 -0.019 Q 0.253 0 0.234 0 L 0.138 -0.003 L 0.134 -0.003 L 0.05 0 L 0.048 0 Q 0.035 0 0.035 -0.011 Q 0.035 -0.029 0.05 -0.03 L 0.05 -0.031 L 0.056 -0.031 Q 0.11900000000000001 -0.035 0.159 -0.085 Q 0.169 -0.098 0.179 -0.115 M 0.299 -0.262 L 0.528 -0.262 L 0.496 -0.592 L 0.299 -0.262 Z"/></g></g><g transform="scale(15,15)"><g transform="translate(1.0666666666666667,11.349998666666666)"><path fill="rgb(0,0,0)" stroke="none" paint-order="stroke fill markers" d=" M 0.16 -0.078 L 0.294 -0.615 Q 0.298 -0.631 0.298 -0.634 Q 0.298 -0.646 0.28200000000000003 -0.649 L 0.281 -0.649 L 0.28 -0.649 Q 0.277 -0.649 0.271 -0.65 Q 0.254 -0.652 0.233 -0.652 Q 0.20700000000000002 -0.652 0.20500000000000002 -0.663 Q 0.20500000000000002 -0.681 0.22 -0.683 L 0.221 -0.683 L 0.222 -0.683 L 0.234 -0.683 L 0.5700000000000001 -0.683 Q 0.685 -0.683 0.734 -0.615 Q 0.756 -0.583 0.756 -0.545 Q 0.756 -0.464 0.666 -0.404 Q 0.665 -0.404 0.664 -0.403 Q 0.611 -0.369 0.547 -0.357 Q 0.649 -0.34500000000000003 0.687 -0.277 Q 0.7020000000000001 -0.249 0.7020000000000001 -0.216 Q 0.7020000000000001 -0.14300000000000002 0.632 -0.079 L 0.631 -0.078 Q 0.545 0 0.426 0 L 0.069 0 Q 0.044 0 0.042 -0.011 Q 0.042 -0.029 0.057 -0.031 L 0.069 -0.031 Q 0.134 -0.031 0.147 -0.045 Q 0.153 -0.052000000000000005 0.159 -0.073 Q 0.159 -0.074 0.16 -0.078 M 0.311 -0.366 L 0.457 -0.366 Q 0.556 -0.366 0.62 -0.438 Q 0.665 -0.489 0.665 -0.549 Q 0.665 -0.622 0.605 -0.644 Q 0.584 -0.652 0.556 -0.652 L 0.427 -0.652 Q 0.391 -0.652 0.383 -0.642 L 0.383 -0.642 L 0.383 -0.641 L 0.382 -0.641 L 0.382 -0.64 Q 0.378 -0.634 0.373 -0.614 L 0.311 -0.366 M 0.266 -0.031 L 0.402 -0.031 Q 0.498 -0.031 0.561 -0.10300000000000001 Q 0.609 -0.159 0.609 -0.227 Q 0.609 -0.3 0.557 -0.33 Q 0.531 -0.34400000000000003 0.494 -0.34400000000000003 L 0.305 -0.34400000000000003 L 0.23600000000000002 -0.065 Q 0.231 -0.047 0.231 -0.042 Q 0.231 -0.034 0.24 -0.032 L 0.24 -0.032 L 0.24 -0.032 L 0.244 -0.032 Q 0.25 -0.031 0.266 -0.031 Z"/></g></g><g transform="scale(15,15)"><g transform="translate(13.733333333333333,10.483332)"><path fill="rgb(0,0,0)" stroke="none" paint-order="stroke fill markers" d=" M 0.76 -0.6950000000000001 L 0.6970000000000001 -0.44 Q 0.6920000000000001 -0.422 0.687 -0.421 L 0.686 -0.42 L 0.679 -0.42 Q 0.664 -0.42 0.664 -0.43 L 0.667 -0.47900000000000004 L 0.667 -0.481 Q 0.667 -0.605 0.589 -0.652 L 0.588 -0.653 Q 0.553 -0.674 0.506 -0.674 Q 0.4 -0.674 0.305 -0.595 Q 0.281 -0.5760000000000001 0.262 -0.553 Q 0.167 -0.442 0.145 -0.271 Q 0.14100000000000001 -0.24 0.14100000000000001 -0.217 Q 0.14100000000000001 -0.077 0.247 -0.028 Q 0.28800000000000003 -0.009000000000000001 0.337 -0.009000000000000001 Q 0.431 -0.009000000000000001 0.521 -0.082 Q 0.591 -0.14100000000000001 0.622 -0.24 Q 0.624 -0.25 0.635 -0.25 Q 0.647 -0.25 0.647 -0.24 Q 0.647 -0.222 0.624 -0.176 Q 0.593 -0.113 0.537 -0.064 Q 0.438 0.022 0.321 0.022 Q 0.193 0.022 0.116 -0.066 Q 0.05 -0.14100000000000001 0.05 -0.252 Q 0.05 -0.401 0.159 -0.531 Q 0.26 -0.652 0.398 -0.6910000000000001 Q 0.449 -0.705 0.498 -0.705 Q 0.607 -0.705 0.664 -0.616 L 0.734 -0.6930000000000001 Q 0.746 -0.705 0.749 -0.705 Q 0.76 -0.705 0.76 -0.6950000000000001 Z"/></g></g><g transform="scale(15,15)"><g transform="translate(1.6,7.483332)"><path fill="rgb(0,0,0)" stroke="none" paint-order="stroke fill markers" d=" M 0.303 -0.316 L 0.303 -0.316 L 0.241 -0.066 L 0.23800000000000002 -0.049 Q 0.23800000000000002 -0.032 0.28400000000000003 -0.031 L 0.28400000000000003 -0.031 L 0.28400000000000003 -0.031 L 0.303 -0.031 Q 0.329 -0.031 0.331 -0.02 Q 0.331 0 0.311 0 L 0.247 -0.002 L 0.246 -0.002 L 0.184 -0.003 L 0.182 -0.003 L 0.056 0 L 0.055 0 Q 0.04 0 0.04 -0.012 Q 0.04 -0.029 0.056 -0.031 L 0.068 -0.031 Q 0.133 -0.031 0.146 -0.045 Q 0.152 -0.052000000000000005 0.158 -0.073 Q 0.158 -0.074 0.159 -0.078 L 0.293 -0.615 Q 0.297 -0.631 0.297 -0.634 Q 0.297 -0.646 0.281 -0.649 L 0.28 -0.649 L 0.28 -0.649 Q 0.278 -0.65 0.275 -0.65 Q 0.251 -0.652 0.232 -0.652 Q 0.20600000000000002 -0.652 0.20400000000000001 -0.66 Q 0.203 -0.662 0.203 -0.664 Q 0.203 -0.681 0.22 -0.683 L 0.22 -0.683 L 0.233 -0.683 L 0.557 -0.683 Q 0.678 -0.683 0.73 -0.609 Q 0.754 -0.5740000000000001 0.754 -0.532 Q 0.754 -0.451 0.671 -0.385 Q 0.583 -0.316 0.47300000000000003 -0.316 L 0.303 -0.316 M 0.375 -0.614 L 0.307 -0.342 L 0.448 -0.342 Q 0.543 -0.342 0.602 -0.395 Q 0.643 -0.433 0.658 -0.522 L 0.658 -0.523 Q 0.661 -0.542 0.661 -0.556 Q 0.661 -0.652 0.525 -0.652 L 0.429 -0.652 Q 0.393 -0.652 0.385 -0.642 L 0.385 -0.642 L 0.385 -0.641 L 0.384 -0.641 L 0.384 -0.64 Q 0.38 -0.634 0.375 -0.614 Z"/></g></g><g transform="scale(15,15)"><g transform="translate(3.3333333333333335,8.883332)"><path fill="rgb(0,0,0)" stroke="none" paint-order="stroke fill markers" d=" M 0.763 -0.606 L 0.628 -0.066 L 0.625 -0.049 Q 0.625 -0.032 0.672 -0.031 L 0.673 -0.031 L 0.6900000000000001 -0.031 Q 0.716 -0.031 0.718 -0.02 Q 0.718 0 0.6980000000000001 0 L 0.634 -0.002 L 0.633 -0.002 L 0.5710000000000001 -0.003 L 0.5690000000000001 -0.003 L 0.443 0 L 0.442 0 Q 0.428 0 0.428 -0.011 Q 0.428 -0.029 0.442 -0.031 L 0.442 -0.031 L 0.442 -0.031 L 0.452 -0.031 Q 0.515 -0.031 0.529 -0.041 L 0.53 -0.042 Q 0.538 -0.049 0.543 -0.064 L 0.612 -0.34 L 0.307 -0.34 L 0.23900000000000002 -0.066 L 0.23600000000000002 -0.049 Q 0.23600000000000002 -0.032 0.28200000000000003 -0.031 L 0.28200000000000003 -0.031 L 0.28200000000000003 -0.031 L 0.301 -0.031 Q 0.327 -0.031 0.329 -0.02 Q 0.329 0 0.309 0 L 0.245 -0.002 L 0.244 -0.002 L 0.182 -0.003 L 0.18 -0.003 L 0.054 0 L 0.053 0 Q 0.039 0 0.039 -0.011 Q 0.039 -0.029 0.054 -0.031 L 0.066 -0.031 Q 0.131 -0.031 0.14400000000000002 -0.045 Q 0.15 -0.052000000000000005 0.156 -0.073 Q 0.156 -0.074 0.157 -0.078 L 0.291 -0.615 Q 0.295 -0.631 0.295 -0.634 Q 0.295 -0.646 0.279 -0.649 L 0.278 -0.649 L 0.277 -0.649 Q 0.274 -0.649 0.268 -0.65 Q 0.251 -0.652 0.23 -0.652 Q 0.20400000000000001 -0.652 0.202 -0.663 Q 0.202 -0.683 0.221 -0.683 L 0.34900000000000003 -0.68 L 0.35000000000000003 -0.68 L 0.47700000000000004 -0.683 L 0.47800000000000004 -0.683 Q 0.492 -0.683 0.492 -0.672 Q 0.492 -0.655 0.47800000000000004 -0.653 L 0.47700000000000004 -0.653 L 0.47700000000000004 -0.653 L 0.47700000000000004 -0.653 L 0.47600000000000003 -0.652 L 0.458 -0.652 Q 0.397 -0.652 0.385 -0.635 L 0.384 -0.635 L 0.384 -0.634 Q 0.379 -0.627 0.374 -0.606 L 0.315 -0.371 L 0.62 -0.371 L 0.68 -0.615 Q 0.684 -0.632 0.684 -0.634 Q 0.684 -0.646 0.668 -0.649 Q 0.665 -0.649 0.657 -0.65 Q 0.64 -0.652 0.619 -0.652 Q 0.593 -0.652 0.591 -0.663 Q 0.591 -0.683 0.61 -0.683 L 0.738 -0.68 L 0.739 -0.68 L 0.866 -0.683 L 0.867 -0.683 Q 0.881 -0.683 0.881 -0.672 Q 0.881 -0.655 0.867 -0.653 L 0.866 -0.653 Q 0.861 -0.652 0.847 -0.652 Q 0.786 -0.652 0.774 -0.636 Q 0.769 -0.629 0.763 -0.606 Z"/></g></g><g transform="scale(15,15)"><g transform="translate(7.2,11.616665333333334)"><path fill="rgb(0,0,0)" stroke="none" paint-order="stroke fill markers" d=" M 0.509 -0.404 L 0.509 -0.404 L 0.651 -0.076 Q 0.666 -0.042 0.6880000000000001 -0.035 L 0.6890000000000001 -0.035 L 0.6900000000000001 -0.035 L 0.6900000000000001 -0.035 Q 0.7010000000000001 -0.031 0.72 -0.031 Q 0.74 -0.031 0.74 -0.02 Q 0.74 0 0.722 0 L 0.625 -0.003 L 0.624 -0.003 L 0.505 0 L 0.502 0 Q 0.488 0 0.488 -0.011 Q 0.494 -0.03 0.51 -0.031 Q 0.562 -0.031 0.562 -0.062 Q 0.562 -0.07 0.55 -0.097 L 0.434 -0.366 L 0.28500000000000003 -0.25 Q 0.256 -0.132 0.245 -0.093 Q 0.23600000000000002 -0.048 0.23600000000000002 -0.049 Q 0.23600000000000002 -0.032 0.28200000000000003 -0.031 L 0.28200000000000003 -0.031 L 0.28200000000000003 -0.031 L 0.301 -0.031 Q 0.327 -0.031 0.329 -0.02 Q 0.329 0 0.309 0 L 0.245 -0.002 L 0.244 -0.002 L 0.182 -0.003 L 0.18 -0.003 L 0.054 0 L 0.053 0 Q 0.038 0 0.038 -0.012 Q 0.038 -0.029 0.054 -0.031 L 0.066 -0.031 Q 0.131 -0.031 0.14400000000000002 -0.045 Q 0.15 -0.052000000000000005 0.156 -0.073 Q 0.156 -0.074 0.157 -0.078 L 0.291 -0.615 Q 0.295 -0.631 0.295 -0.634 Q 0.295 -0.646 0.279 -0.649 L 0.278 -0.649 L 0.278 -0.649 Q 0.276 -0.65 0.273 -0.65 Q 0.249 -0.652 0.23 -0.652 Q 0.20400000000000001 -0.652 0.202 -0.66 Q 0.201 -0.662 0.201 -0.664 Q 0.201 -0.683 0.221 -0.683 L 0.34900000000000003 -0.68 L 0.35000000000000003 -0.68 L 0.47700000000000004 -0.683 L 0.47800000000000004 -0.683 Q 0.492 -0.683 0.492 -0.672 Q 0.492 -0.655 0.47700000000000004 -0.653 L 0.47700000000000004 -0.653 Q 0.47200000000000003 -0.652 0.458 -0.652 Q 0.397 -0.652 0.385 -0.636 Q 0.38 -0.629 0.374 -0.606 L 0.294 -0.28500000000000003 L 0.684 -0.585 Q 0.72 -0.615 0.72 -0.631 Q 0.72 -0.648 0.6930000000000001 -0.652 L 0.6930000000000001 -0.652 L 0.6890000000000001 -0.652 Q 0.677 -0.654 0.677 -0.663 Q 0.677 -0.683 0.6960000000000001 -0.683 L 0.806 -0.68 L 0.807 -0.68 L 0.877 -0.683 L 0.878 -0.683 Q 0.889 -0.683 0.889 -0.672 Q 0.889 -0.655 0.871 -0.652 Q 0.8160000000000001 -0.646 0.753 -0.607 Q 0.732 -0.594 0.708 -0.5760000000000001 L 0.533 -0.441 Q 0.504 -0.42 0.504 -0.418 L 0.509 -0.404 Z"/></g></g><g transform="scale(15,15)"><g transform="translate(5.133333333333334,7.149998666666667)"><path fill="rgb(0,0,0)" stroke="none" paint-order="stroke fill markers" d=" M 0.374 -0.606 L 0.24 -0.073 Q 0.23600000000000002 -0.059000000000000004 0.23600000000000002 -0.05 Q 0.23600000000000002 -0.037 0.25 -0.034 L 0.251 -0.034 L 0.252 -0.034 Q 0.256 -0.033 0.261 -0.033 Q 0.281 -0.031 0.304 -0.031 Q 0.331 -0.031 0.333 -0.024 Q 0.334 -0.022 0.334 -0.019 Q 0.334 0 0.314 0 L 0.181 -0.003 L 0.18 -0.003 L 0.05 0 L 0.049 0 Q 0.034 0 0.034 -0.011 Q 0.034 -0.028 0.048 -0.03 Q 0.053 -0.031 0.066 -0.031 Q 0.133 -0.031 0.146 -0.048 Q 0.151 -0.055 0.157 -0.078 L 0.292 -0.617 Q 0.294 -0.626 0.294 -0.633 Q 0.294 -0.651 0.252 -0.652 L 0.251 -0.652 L 0.225 -0.652 Q 0.199 -0.652 0.197 -0.663 Q 0.197 -0.683 0.217 -0.683 L 0.34900000000000003 -0.68 L 0.35000000000000003 -0.68 L 0.481 -0.683 L 0.482 -0.683 Q 0.497 -0.683 0.497 -0.671 Q 0.497 -0.654 0.483 -0.653 Q 0.47800000000000004 -0.652 0.465 -0.652 Q 0.398 -0.652 0.385 -0.636 Q 0.38 -0.629 0.374 -0.606 Z"/></g></g><g transform="scale(15,15)"><g transform="translate(7.2,5.083332)"><path fill="rgb(0,0,0)" stroke="none" paint-order="stroke fill markers" d=" M 0.438 -0.006 L 0.438 -0.006 Q 0.448 0.073 0.47500000000000003 0.089 Q 0.488 0.097 0.509 0.097 Q 0.558 0.097 0.596 0.054 Q 0.616 0.032 0.626 0.001 Q 0.63 -0.01 0.638 -0.01 Q 0.649 -0.01 0.649 0 Q 0.649 0.019 0.625 0.07200000000000001 Q 0.5690000000000001 0.194 0.482 0.194 Q 0.399 0.194 0.399 0.084 Q 0.399 0.069 0.403 0.007 Q 0.35000000000000003 0.022 0.305 0.022 Q 0.18 0.022 0.108 -0.066 Q 0.049 -0.138 0.049 -0.245 Q 0.049 -0.395 0.156 -0.529 Q 0.255 -0.65 0.388 -0.6900000000000001 Q 0.437 -0.705 0.485 -0.705 Q 0.612 -0.705 0.684 -0.613 Q 0.74 -0.541 0.74 -0.436 Q 0.74 -0.28200000000000003 0.63 -0.149 Q 0.546 -0.047 0.438 -0.006 M 0.249 -0.014 L 0.243 -0.037 L 0.243 -0.046 Q 0.243 -0.095 0.28700000000000003 -0.128 Q 0.314 -0.148 0.34500000000000003 -0.148 Q 0.41600000000000004 -0.148 0.432 -0.049 Q 0.432 -0.046 0.433 -0.04 Q 0.5660000000000001 -0.114 0.624 -0.305 Q 0.652 -0.394 0.652 -0.468 Q 0.652 -0.598 0.5720000000000001 -0.652 L 0.5710000000000001 -0.653 L 0.5710000000000001 -0.653 Q 0.531 -0.68 0.47900000000000004 -0.68 Q 0.384 -0.68 0.295 -0.596 Q 0.265 -0.5680000000000001 0.23900000000000002 -0.532 Q 0.161 -0.42 0.14100000000000001 -0.266 Q 0.137 -0.23600000000000002 0.137 -0.213 Q 0.137 -0.08 0.223 -0.027 Q 0.23500000000000001 -0.02 0.249 -0.014 M 0.311 -0.003 L 0.311 -0.003 Q 0.352 -0.003 0.395 -0.021 Q 0.405 -0.034 0.406 -0.041 Q 0.406 -0.117 0.36 -0.125 L 0.359 -0.125 Q 0.353 -0.126 0.34500000000000003 -0.126 Q 0.304 -0.126 0.278 -0.088 Q 0.265 -0.067 0.265 -0.046 Q 0.265 -0.003 0.311 -0.003 Z"/></g></g><g transform="scale(15,15)"><g transform="translate(7.266666666666667,14.749998666666666)"><path fill="rgb(0,0,0)" stroke="none" paint-order="stroke fill markers" d=" M 0.179 -0.115 L 0.527 -0.6990000000000001 Q 0.537 -0.715 0.553 -0.716 Q 0.5680000000000001 -0.716 0.5700000000000001 -0.706 Q 0.5710000000000001 -0.7030000000000001 0.5720000000000001 -0.6920000000000001 L 0.633 -0.067 Q 0.636 -0.042 0.645 -0.037 L 0.646 -0.037 L 0.646 -0.037 L 0.646 -0.037 L 0.646 -0.037 L 0.646 -0.036000000000000004 Q 0.658 -0.031 0.6980000000000001 -0.031 Q 0.72 -0.031 0.721 -0.02 Q 0.721 0 0.7030000000000001 0 L 0.591 -0.003 L 0.59 -0.003 L 0.466 0 L 0.465 0 Q 0.451 0 0.451 -0.011 Q 0.459 -0.03 0.47500000000000003 -0.031 Q 0.547 -0.031 0.547 -0.064 Q 0.547 -0.063 0.531 -0.231 L 0.28 -0.231 L 0.20400000000000001 -0.10300000000000001 Q 0.19 -0.078 0.19 -0.066 Q 0.19 -0.035 0.23700000000000002 -0.031 Q 0.253 -0.031 0.253 -0.019 Q 0.253 0 0.234 0 L 0.138 -0.003 L 0.134 -0.003 L 0.05 0 L 0.048 0 Q 0.035 0 0.035 -0.011 Q 0.035 -0.029 0.05 -0.03 L 0.05 -0.031 L 0.056 -0.031 Q 0.11900000000000001 -0.035 0.159 -0.085 Q 0.169 -0.098 0.179 -0.115 M 0.299 -0.262 L 0.528 -0.262 L 0.496 -0.592 L 0.299 -0.262 Z"/></g><g transform="translate(8.016668666666666,14.899998666666667) scale(0.7,0.7)"><path fill="rgb(0,0,0)" stroke="none" paint-order="stroke fill markers" d=" M 0.294 -0.64 L 0.294 -0.079 Q 0.294 -0.049 0.306 -0.041 Q 0.323 -0.031 0.387 -0.031 L 0.419 -0.031 L 0.419 0 Q 0.384 -0.003 0.257 -0.003 Q 0.13 -0.003 0.095 0 L 0.095 -0.031 L 0.127 -0.031 Q 0.20400000000000001 -0.031 0.215 -0.049 L 0.216 -0.05 Q 0.22 -0.058 0.22 -0.079 L 0.22 -0.597 Q 0.168 -0.5710000000000001 0.089 -0.5710000000000001 L 0.089 -0.602 Q 0.209 -0.602 0.271 -0.666 Q 0.29 -0.666 0.293 -0.659 L 0.293 -0.659 L 0.293 -0.658 Q 0.294 -0.655 0.294 -0.64 Z"/></g></g><g transform="scale(15,15)"><g transform="translate(8.6,6.149998666666667)"><path fill="rgb(0,0,0)" stroke="none" paint-order="stroke fill markers" d=" M 0.16 -0.078 L 0.294 -0.615 Q 0.298 -0.631 0.298 -0.634 Q 0.298 -0.646 0.28200000000000003 -0.649 L 0.281 -0.649 L 0.28 -0.649 Q 0.277 -0.649 0.271 -0.65 Q 0.254 -0.652 0.233 -0.652 Q 0.20700000000000002 -0.652 0.20500000000000002 -0.663 Q 0.20500000000000002 -0.681 0.22 -0.683 L 0.221 -0.683 L 0.222 -0.683 L 0.234 -0.683 L 0.5700000000000001 -0.683 Q 0.685 -0.683 0.734 -0.615 Q 0.756 -0.583 0.756 -0.545 Q 0.756 -0.464 0.666 -0.404 Q 0.665 -0.404 0.664 -0.403 Q 0.611 -0.369 0.547 -0.357 Q 0.649 -0.34500000000000003 0.687 -0.277 Q 0.7020000000000001 -0.249 0.7020000000000001 -0.216 Q 0.7020000000000001 -0.14300000000000002 0.632 -0.079 L 0.631 -0.078 Q 0.545 0 0.426 0 L 0.069 0 Q 0.044 0 0.042 -0.011 Q 0.042 -0.029 0.057 -0.031 L 0.069 -0.031 Q 0.134 -0.031 0.147 -0.045 Q 0.153 -0.052000000000000005 0.159 -0.073 Q 0.159 -0.074 0.16 -0.078 M 0.311 -0.366 L 0.457 -0.366 Q 0.556 -0.366 0.62 -0.438 Q 0.665 -0.489 0.665 -0.549 Q 0.665 -0.622 0.605 -0.644 Q 0.584 -0.652 0.556 -0.652 L 0.427 -0.652 Q 0.391 -0.652 0.383 -0.642 L 0.383 -0.642 L 0.383 -0.641 L 0.382 -0.641 L 0.382 -0.64 Q 0.378 -0.634 0.373 -0.614 L 0.311 -0.366 M 0.266 -0.031 L 0.402 -0.031 Q 0.498 -0.031 0.561 -0.10300000000000001 Q 0.609 -0.159 0.609 -0.227 Q 0.609 -0.3 0.557 -0.33 Q 0.531 -0.34400000000000003 0.494 -0.34400000000000003 L 0.305 -0.34400000000000003 L 0.23600000000000002 -0.065 Q 0.231 -0.047 0.231 -0.042 Q 0.231 -0.034 0.24 -0.032 L 0.24 -0.032 L 0.24 -0.032 L 0.244 -0.032 Q 0.25 -0.031 0.266 -0.031 Z"/></g><g transform="translate(9.358509999999999,6.299998666666667) scale(0.7,0.7)"><path fill="rgb(0,0,0)" stroke="none" paint-order="stroke fill markers" d=" M 0.294 -0.64 L 0.294 -0.079 Q 0.294 -0.049 0.306 -0.041 Q 0.323 -0.031 0.387 -0.031 L 0.419 -0.031 L 0.419 0 Q 0.384 -0.003 0.257 -0.003 Q 0.13 -0.003 0.095 0 L 0.095 -0.031 L 0.127 -0.031 Q 0.20400000000000001 -0.031 0.215 -0.049 L 0.216 -0.05 Q 0.22 -0.058 0.22 -0.079 L 0.22 -0.597 Q 0.168 -0.5710000000000001 0.089 -0.5710000000000001 L 0.089 -0.602 Q 0.209 -0.602 0.271 -0.666 Q 0.29 -0.666 0.293 -0.659 L 0.293 -0.659 L 0.293 -0.658 Q 0.294 -0.655 0.294 -0.64 Z"/></g></g><g transform="scale(15,15)"><g transform="translate(1,9.216665333333333)"><path fill="rgb(0,0,0)" stroke="none" paint-order="stroke fill markers" d=" M 0.16 -0.078 L 0.294 -0.615 Q 0.298 -0.631 0.298 -0.634 Q 0.298 -0.646 0.28200000000000003 -0.649 L 0.281 -0.649 L 0.28 -0.649 Q 0.277 -0.649 0.271 -0.65 Q 0.254 -0.652 0.233 -0.652 Q 0.20700000000000002 -0.652 0.20500000000000002 -0.663 Q 0.20500000000000002 -0.681 0.22 -0.683 L 0.221 -0.683 L 0.222 -0.683 L 0.234 -0.683 L 0.5700000000000001 -0.683 Q 0.685 -0.683 0.734 -0.615 Q 0.756 -0.583 0.756 -0.545 Q 0.756 -0.464 0.666 -0.404 Q 0.665 -0.404 0.664 -0.403 Q 0.611 -0.369 0.547 -0.357 Q 0.649 -0.34500000000000003 0.687 -0.277 Q 0.7020000000000001 -0.249 0.7020000000000001 -0.216 Q 0.7020000000000001 -0.14300000000000002 0.632 -0.079 L 0.631 -0.078 Q 0.545 0 0.426 0 L 0.069 0 Q 0.044 0 0.042 -0.011 Q 0.042 -0.029 0.057 -0.031 L 0.069 -0.031 Q 0.134 -0.031 0.147 -0.045 Q 0.153 -0.052000000000000005 0.159 -0.073 Q 0.159 -0.074 0.16 -0.078 M 0.311 -0.366 L 0.457 -0.366 Q 0.556 -0.366 0.62 -0.438 Q 0.665 -0.489 0.665 -0.549 Q 0.665 -0.622 0.605 -0.644 Q 0.584 -0.652 0.556 -0.652 L 0.427 -0.652 Q 0.391 -0.652 0.383 -0.642 L 0.383 -0.642 L 0.383 -0.641 L 0.382 -0.641 L 0.382 -0.64 Q 0.378 -0.634 0.373 -0.614 L 0.311 -0.366 M 0.266 -0.031 L 0.402 -0.031 Q 0.498 -0.031 0.561 -0.10300000000000001 Q 0.609 -0.159 0.609 -0.227 Q 0.609 -0.3 0.557 -0.33 Q 0.531 -0.34400000000000003 0.494 -0.34400000000000003 L 0.305 -0.34400000000000003 L 0.23600000000000002 -0.065 Q 0.231 -0.047 0.231 -0.042 Q 0.231 -0.034 0.24 -0.032 L 0.24 -0.032 L 0.24 -0.032 L 0.244 -0.032 Q 0.25 -0.031 0.266 -0.031 Z"/></g><g transform="translate(1.75851,9.366665333333334) scale(0.7,0.7)"><path fill="rgb(0,0,0)" stroke="none" paint-order="stroke fill markers" d=" M 0.449 -0.17400000000000002 L 0.449 -0.17400000000000002 L 0.421 0 L 0.05 0 Q 0.05 -0.025 0.056 -0.032 L 0.061 -0.037 L 0.253 -0.251 Q 0.358 -0.369 0.358 -0.47200000000000003 Q 0.358 -0.561 0.304 -0.607 L 0.303 -0.608 L 0.302 -0.608 Q 0.27 -0.635 0.224 -0.635 Q 0.152 -0.635 0.109 -0.5730000000000001 Q 0.097 -0.555 0.089 -0.533 Q 0.092 -0.534 0.10200000000000001 -0.534 Q 0.14200000000000002 -0.534 0.153 -0.498 L 0.153 -0.497 Q 0.155 -0.49 0.155 -0.482 Q 0.155 -0.442 0.117 -0.431 Q 0.109 -0.429 0.10300000000000001 -0.429 Q 0.066 -0.429 0.054 -0.46 Q 0.05 -0.47100000000000003 0.05 -0.485 Q 0.05 -0.562 0.109 -0.617 Q 0.162 -0.666 0.23700000000000002 -0.666 Q 0.34700000000000003 -0.666 0.40800000000000003 -0.592 Q 0.443 -0.549 0.448 -0.49 Q 0.449 -0.481 0.449 -0.47200000000000003 Q 0.449 -0.399 0.394 -0.333 Q 0.365 -0.299 0.304 -0.243 L 0.243 -0.189 L 0.233 -0.18 L 0.127 -0.077 L 0.307 -0.077 Q 0.395 -0.077 0.402 -0.085 Q 0.41200000000000003 -0.099 0.424 -0.17400000000000002 L 0.449 -0.17400000000000002 Z"/></g></g><g transform="scale(15,15)"><g transform="translate(1.4,6.216665333333333)"><path fill="rgb(0,0,0)" stroke="none" paint-order="stroke fill markers" d=" M 0.76 -0.6950000000000001 L 0.6970000000000001 -0.44 Q 0.6920000000000001 -0.422 0.687 -0.421 L 0.686 -0.42 L 0.679 -0.42 Q 0.664 -0.42 0.664 -0.43 L 0.667 -0.47900000000000004 L 0.667 -0.481 Q 0.667 -0.605 0.589 -0.652 L 0.588 -0.653 Q 0.553 -0.674 0.506 -0.674 Q 0.4 -0.674 0.305 -0.595 Q 0.281 -0.5760000000000001 0.262 -0.553 Q 0.167 -0.442 0.145 -0.271 Q 0.14100000000000001 -0.24 0.14100000000000001 -0.217 Q 0.14100000000000001 -0.077 0.247 -0.028 Q 0.28800000000000003 -0.009000000000000001 0.337 -0.009000000000000001 Q 0.431 -0.009000000000000001 0.521 -0.082 Q 0.591 -0.14100000000000001 0.622 -0.24 Q 0.624 -0.25 0.635 -0.25 Q 0.647 -0.25 0.647 -0.24 Q 0.647 -0.222 0.624 -0.176 Q 0.593 -0.113 0.537 -0.064 Q 0.438 0.022 0.321 0.022 Q 0.193 0.022 0.116 -0.066 Q 0.05 -0.14100000000000001 0.05 -0.252 Q 0.05 -0.401 0.159 -0.531 Q 0.26 -0.652 0.398 -0.6910000000000001 Q 0.449 -0.705 0.498 -0.705 Q 0.607 -0.705 0.664 -0.616 L 0.734 -0.6930000000000001 Q 0.746 -0.705 0.749 -0.705 Q 0.76 -0.705 0.76 -0.6950000000000001 Z"/></g><g transform="translate(2.114722,6.366665333333334) scale(0.7,0.7)"><path fill="rgb(0,0,0)" stroke="none" paint-order="stroke fill markers" d=" M 0.294 -0.64 L 0.294 -0.079 Q 0.294 -0.049 0.306 -0.041 Q 0.323 -0.031 0.387 -0.031 L 0.419 -0.031 L 0.419 0 Q 0.384 -0.003 0.257 -0.003 Q 0.13 -0.003 0.095 0 L 0.095 -0.031 L 0.127 -0.031 Q 0.20400000000000001 -0.031 0.215 -0.049 L 0.216 -0.05 Q 0.22 -0.058 0.22 -0.079 L 0.22 -0.597 Q 0.168 -0.5710000000000001 0.089 -0.5710000000000001 L 0.089 -0.602 Q 0.209 -0.602 0.271 -0.666 Q 0.29 -0.666 0.293 -0.659 L 0.293 -0.659 L 0.293 -0.658 Q 0.294 -0.655 0.294 -0.64 Z"/></g></g><g transform="scale(15,15)"><g transform="translate(16.333333333333332,13.483332)"><path fill="rgb(0,0,0)" stroke="none" paint-order="stroke fill markers" d=" M 0.76 -0.6950000000000001 L 0.6970000000000001 -0.44 Q 0.6920000000000001 -0.422 0.687 -0.421 L 0.686 -0.42 L 0.679 -0.42 Q 0.664 -0.42 0.664 -0.43 L 0.667 -0.47900000000000004 L 0.667 -0.481 Q 0.667 -0.605 0.589 -0.652 L 0.588 -0.653 Q 0.553 -0.674 0.506 -0.674 Q 0.4 -0.674 0.305 -0.595 Q 0.281 -0.5760000000000001 0.262 -0.553 Q 0.167 -0.442 0.145 -0.271 Q 0.14100000000000001 -0.24 0.14100000000000001 -0.217 Q 0.14100000000000001 -0.077 0.247 -0.028 Q 0.28800000000000003 -0.009000000000000001 0.337 -0.009000000000000001 Q 0.431 -0.009000000000000001 0.521 -0.082 Q 0.591 -0.14100000000000001 0.622 -0.24 Q 0.624 -0.25 0.635 -0.25 Q 0.647 -0.25 0.647 -0.24 Q 0.647 -0.222 0.624 -0.176 Q 0.593 -0.113 0.537 -0.064 Q 0.438 0.022 0.321 0.022 Q 0.193 0.022 0.116 -0.066 Q 0.05 -0.14100000000000001 0.05 -0.252 Q 0.05 -0.401 0.159 -0.531 Q 0.26 -0.652 0.398 -0.6910000000000001 Q 0.449 -0.705 0.498 -0.705 Q 0.607 -0.705 0.664 -0.616 L 0.734 -0.6930000000000001 Q 0.746 -0.705 0.749 -0.705 Q 0.76 -0.705 0.76 -0.6950000000000001 Z"/></g><g transform="translate(17.04805533333333,13.633332000000001) scale(0.7,0.7)"><path fill="rgb(0,0,0)" stroke="none" paint-order="stroke fill markers" d=" M 0.449 -0.17400000000000002 L 0.449 -0.17400000000000002 L 0.421 0 L 0.05 0 Q 0.05 -0.025 0.056 -0.032 L 0.061 -0.037 L 0.253 -0.251 Q 0.358 -0.369 0.358 -0.47200000000000003 Q 0.358 -0.561 0.304 -0.607 L 0.303 -0.608 L 0.302 -0.608 Q 0.27 -0.635 0.224 -0.635 Q 0.152 -0.635 0.109 -0.5730000000000001 Q 0.097 -0.555 0.089 -0.533 Q 0.092 -0.534 0.10200000000000001 -0.534 Q 0.14200000000000002 -0.534 0.153 -0.498 L 0.153 -0.497 Q 0.155 -0.49 0.155 -0.482 Q 0.155 -0.442 0.117 -0.431 Q 0.109 -0.429 0.10300000000000001 -0.429 Q 0.066 -0.429 0.054 -0.46 Q 0.05 -0.47100000000000003 0.05 -0.485 Q 0.05 -0.562 0.109 -0.617 Q 0.162 -0.666 0.23700000000000002 -0.666 Q 0.34700000000000003 -0.666 0.40800000000000003 -0.592 Q 0.443 -0.549 0.448 -0.49 Q 0.449 -0.481 0.449 -0.47200000000000003 Q 0.449 -0.399 0.394 -0.333 Q 0.365 -0.299 0.304 -0.243 L 0.243 -0.189 L 0.233 -0.18 L 0.127 -0.077 L 0.307 -0.077 Q 0.395 -0.077 0.402 -0.085 Q 0.41200000000000003 -0.099 0.424 -0.17400000000000002 L 0.449 -0.17400000000000002 Z"/></g></g></g></g></svg>